<?xml version="1.0" encoding="utf-8" standalone="no"?>
<!DOCTYPE svg PUBLIC "-//W3C//DTD SVG 1.1//EN"
  "http://www.w3.org/Graphics/SVG/1.1/DTD/svg11.dtd">
<svg xmlns:xlink="http://www.w3.org/1999/xlink" width="944.39952pt" height="569.99952pt" viewBox="0 0 944.39952 569.99952" xmlns="http://www.w3.org/2000/svg" version="1.1">
 <metadata>
  <rdf:RDF xmlns:dc="http://purl.org/dc/elements/1.1/" xmlns:cc="http://creativecommons.org/ns#" xmlns:rdf="http://www.w3.org/1999/02/22-rdf-syntax-ns#">
   <cc:Work>
    <dc:type rdf:resource="http://purl.org/dc/dcmitype/StillImage"/>
    <dc:date>2026-06-11T00:54:50.051147</dc:date>
    <dc:format>image/svg+xml</dc:format>
    <dc:creator>
     <cc:Agent>
      <dc:title>Matplotlib v3.10.9, https://matplotlib.org/</dc:title>
     </cc:Agent>
    </dc:creator>
   </cc:Work>
  </rdf:RDF>
 </metadata>
 <defs>
  <style type="text/css">*{stroke-linejoin: round; stroke-linecap: butt}</style>
 </defs>
 <g id="figure_1">
  <g id="patch_1">
   <path d="M 0 569.99952 
L 944.39952 569.99952 
L 944.39952 0 
L 0 0 
z
" style="fill: #ffffff"/>
  </g>
  <g id="axes_1">
   <g id="patch_2">
    <path d="M 75.28028 155.190875 
L 211.372791 155.190875 
Q 224.45861 155.190875 224.45861 151.064735 
L 224.45861 72.393006 
Q 224.45861 68.266867 211.372791 68.266867 
L 75.28028 68.266867 
Q 62.194461 68.266867 62.194461 72.393006 
L 62.194461 151.064735 
Q 62.194461 155.190875 75.28028 155.190875 
z
" clip-path="url(#pe7e7b5761a)" style="fill: #ffffff; stroke: #3e6fa5; stroke-width: 1.8; stroke-linejoin: miter"/>
   </g>
   <g id="patch_3">
    <path d="M 254.119798 155.190875 
L 390.21231 155.190875 
Q 403.298128 155.190875 403.298128 151.064735 
L 403.298128 72.393006 
Q 403.298128 68.266867 390.21231 68.266867 
L 254.119798 68.266867 
Q 241.03398 68.266867 241.03398 72.393006 
L 241.03398 151.064735 
Q 241.03398 155.190875 254.119798 155.190875 
z
" clip-path="url(#pe7e7b5761a)" style="fill: #ffffff; stroke: #007c89; stroke-width: 1.8; stroke-linejoin: miter"/>
   </g>
   <g id="patch_4">
    <path d="M 432.959317 155.190875 
L 569.051828 155.190875 
Q 582.137647 155.190875 582.137647 151.064735 
L 582.137647 72.393006 
Q 582.137647 68.266867 569.051828 68.266867 
L 432.959317 68.266867 
Q 419.873498 68.266867 419.873498 72.393006 
L 419.873498 151.064735 
Q 419.873498 155.190875 432.959317 155.190875 
z
" clip-path="url(#pe7e7b5761a)" style="fill: #ffffff; stroke: #e17c3a; stroke-width: 1.8; stroke-linejoin: miter"/>
   </g>
   <g id="patch_5">
    <path d="M 611.798835 155.190875 
L 747.891347 155.190875 
Q 760.977165 155.190875 760.977165 151.064735 
L 760.977165 72.393006 
Q 760.977165 68.266867 747.891347 68.266867 
L 611.798835 68.266867 
Q 598.713017 68.266867 598.713017 72.393006 
L 598.713017 151.064735 
Q 598.713017 155.190875 611.798835 155.190875 
z
" clip-path="url(#pe7e7b5761a)" style="fill: #ffffff; stroke: #2e8b57; stroke-width: 1.8; stroke-linejoin: miter"/>
   </g>
   <g id="patch_6">
    <path d="M 790.638354 155.190875 
L 926.730865 155.190875 
Q 939.816684 155.190875 939.816684 151.064735 
L 939.816684 72.393006 
Q 939.816684 68.266867 926.730865 68.266867 
L 790.638354 68.266867 
Q 777.552535 68.266867 777.552535 72.393006 
L 777.552535 151.064735 
Q 777.552535 155.190875 790.638354 155.190875 
z
" clip-path="url(#pe7e7b5761a)" style="fill: #ffffff; stroke: #8e5ea2; stroke-width: 1.8; stroke-linejoin: miter"/>
   </g>
   <g id="text_1">
    <text style="font-weight: 700; font-size: 9.2px; font-family: 'DejaVu Sans'; fill: #3e6fa5" transform="translate(121.762598 87.110424)">NHANES</text>
    <text style="font-weight: 700; font-size: 9.2px; font-family: 'DejaVu Sans'; fill: #3e6fa5" transform="translate(115.812786 97.412412)">2013-2018</text>
   </g>
   <g id="text_2">
    <text style="font-size: 7.1px; font-family: 'DejaVu Sans'; fill: #18212b" transform="translate(103.830012 120.715843)">DEHP oxidative profile</text>
    <text style="font-size: 7.1px; font-family: 'DejaVu Sans'; fill: #18212b" transform="translate(90.818153 128.66629)">survey-weighted associations</text>
   </g>
   <g id="patch_7">
    <path d="M 228.206513 111.728871 
Q 232.748089 111.728871 235.724418 111.728871 
" style="fill: none; stroke: #7c8794; stroke-width: 1.4; stroke-linecap: round"/>
    <path d="M 231.884418 109.808871 
L 235.724418 111.728871 
L 231.884418 113.648871 
" style="fill: none; stroke: #7c8794; stroke-width: 1.4; stroke-linecap: round"/>
   </g>
   <g id="text_3">
    <text style="font-weight: 700; font-size: 9.2px; font-family: 'DejaVu Sans'; text-anchor: middle; fill: #007c89" x="322.166054" y="92.22548" transform="rotate(-0 322.166054 92.22548)">MSI bridge</text>
   </g>
   <g id="text_4">
    <text style="font-size: 7.1px; font-family: 'DejaVu Sans'; fill: #18212b" transform="translate(280.451335 120.715843)">Metabolic susceptibility</text>
    <text style="font-size: 7.1px; font-family: 'DejaVu Sans'; fill: #18212b" transform="translate(279.921054 128.66629)">phenotype construction</text>
   </g>
   <g id="patch_8">
    <path d="M 407.046031 111.728871 
Q 411.587608 111.728871 414.563937 111.728871 
" style="fill: none; stroke: #7c8794; stroke-width: 1.4; stroke-linecap: round"/>
    <path d="M 410.723937 109.808871 
L 414.563937 111.728871 
L 410.723937 113.648871 
" style="fill: none; stroke: #7c8794; stroke-width: 1.4; stroke-linecap: round"/>
   </g>
   <g id="text_5">
    <text style="font-weight: 700; font-size: 9.2px; font-family: 'DejaVu Sans'; text-anchor: middle; fill: #e17c3a" x="501.005572" y="92.261418" transform="rotate(-0 501.005572 92.261418)">CGMacros</text>
   </g>
   <g id="text_6">
    <text style="font-size: 7.1px; font-family: 'DejaVu Sans'; fill: #18212b" transform="translate(462.973424 120.715843)">Free-living meal-level</text>
    <text style="font-size: 7.1px; font-family: 'DejaVu Sans'; fill: #18212b" transform="translate(469.473252 128.66629)">CGM vulnerability</text>
   </g>
   <g id="patch_9">
    <path d="M 585.88555 111.728871 
Q 590.427126 111.728871 593.403455 111.728871 
" style="fill: none; stroke: #7c8794; stroke-width: 1.4; stroke-linecap: round"/>
    <path d="M 589.563455 109.808871 
L 593.403455 111.728871 
L 589.563455 113.648871 
" style="fill: none; stroke: #7c8794; stroke-width: 1.4; stroke-linecap: round"/>
   </g>
   <g id="text_7">
    <text style="font-weight: 700; font-size: 9.2px; font-family: 'DejaVu Sans'; text-anchor: middle; fill: #2e8b57" x="679.845091" y="92.261418" transform="rotate(-0 679.845091 92.261418)">Food matrix</text>
   </g>
   <g id="text_8">
    <text style="font-size: 7.1px; font-family: 'DejaVu Sans'; fill: #18212b" transform="translate(640.160528 120.715843)">Digestibility-risk proxy</text>
    <text style="font-size: 7.1px; font-family: 'DejaVu Sans'; fill: #18212b" transform="translate(647.880114 128.66629)">curve phenotypes</text>
   </g>
   <g id="patch_10">
    <path d="M 764.725068 111.728871 
Q 769.266645 111.728871 772.242974 111.728871 
" style="fill: none; stroke: #7c8794; stroke-width: 1.4; stroke-linecap: round"/>
    <path d="M 768.402974 109.808871 
L 772.242974 111.728871 
L 768.402974 113.648871 
" style="fill: none; stroke: #7c8794; stroke-width: 1.4; stroke-linecap: round"/>
   </g>
   <g id="text_9">
    <text style="font-weight: 700; font-size: 9.2px; font-family: 'DejaVu Sans'; fill: #8e5ea2" transform="translate(832.117453 87.110424)">Prediction</text>
    <text style="font-weight: 700; font-size: 9.2px; font-family: 'DejaVu Sans'; fill: #8e5ea2" transform="translate(829.582422 97.412412)">boundaries</text>
   </g>
   <g id="text_10">
    <text style="font-size: 7.1px; font-family: 'DejaVu Sans'; fill: #18212b" transform="translate(828.775305 120.715843)">MSI stratification</text>
    <text style="font-size: 7.1px; font-family: 'DejaVu Sans'; fill: #18212b" transform="translate(833.290461 128.66629)">external limits</text>
   </g>
   <g id="text_11">
    <g id="patch_11">
     <path d="M 277.606588 212.759859 
L 724.404557 212.759859 
Q 727.554557 212.759859 727.554557 209.609859 
L 727.554557 200.899546 
Q 727.554557 197.749546 724.404557 197.749546 
L 277.606588 197.749546 
Q 274.456588 197.749546 274.456588 200.899546 
L 274.456588 209.609859 
Q 274.456588 212.759859 277.606588 212.759859 
z
" style="fill: #f4f7fa; stroke: #d5dde6; stroke-width: 0.8; stroke-linejoin: miter"/>
    </g>
    <text style="font-size: 9px; font-family: 'DejaVu Sans'; text-anchor: middle; fill: #18212b" x="501.005572" y="207.73814" transform="rotate(-0 501.005572 207.73814)">Design principle: cross-dataset bridge phenotype, not a direct DEHP-to-PPGR causal mediation test</text>
   </g>
   <g id="text_12">
    <text style="font-weight: 700; font-size: 10.5px; font-family: 'DejaVu Sans'; text-anchor: start; fill: #18212b" x="64.811625" y="15.178359" transform="rotate(-0 64.811625 15.178359)">A</text>
   </g>
  </g>
  <g id="axes_2">
   <g id="patch_12">
    <path d="M 64.811625 535.846708 
L 520.830265 535.846708 
L 520.830265 306.616728 
L 64.811625 306.616728 
z
" style="fill: #ffffff"/>
   </g>
   <g id="matplotlib.axis_1">
    <g id="xtick_1">
     <g id="line2d_1">
      <path d="M 64.811625 535.846708 
L 64.811625 306.616728 
" clip-path="url(#p89d51a844a)" style="fill: none; stroke: #e8edf2; stroke-width: 0.55; stroke-linecap: round"/>
     </g>
     <g id="text_13">
      <!-- $\mathdefault{0}$ -->
      <g style="fill: #1f2933" transform="translate(62.187625 548.577426)">
       <text>
        <tspan x="0" y="-0.0625" style="font-size: 8.2px; font-family: 'DejaVu Sans'; fill: #1f2933">0</tspan>
       </text>
      </g>
     </g>
    </g>
    <g id="xtick_2">
     <g id="line2d_2">
      <path d="M 153.461033 535.846708 
L 153.461033 306.616728 
" clip-path="url(#p89d51a844a)" style="fill: none; stroke: #e8edf2; stroke-width: 0.55; stroke-linecap: round"/>
     </g>
     <g id="text_14">
      <!-- $\mathdefault{10^{1}}$ -->
      <g style="fill: #1f2933" transform="translate(146.245033 548.577426)">
       <text>
        <tspan x="0" y="-0.857813" style="font-size: 8.2px; font-family: 'DejaVu Sans'; fill: #1f2933">1</tspan>
        <tspan x="5.248901" y="-0.857813" style="font-size: 8.2px; font-family: 'DejaVu Sans'; fill: #1f2933">0</tspan>
        <tspan x="10.574365" y="-3.920313" style="font-size: 5.74px; font-family: 'DejaVu Sans'; fill: #1f2933">1</tspan>
       </text>
      </g>
     </g>
    </g>
    <g id="xtick_3">
     <g id="line2d_3">
      <path d="M 233.2455 535.846708 
L 233.2455 306.616728 
" clip-path="url(#p89d51a844a)" style="fill: none; stroke: #e8edf2; stroke-width: 0.55; stroke-linecap: round"/>
     </g>
     <g id="text_15">
      <!-- $\mathdefault{10^{2}}$ -->
      <g style="fill: #1f2933" transform="translate(226.0295 548.577426)">
       <text>
        <tspan x="0" y="-0.78125" style="font-size: 8.2px; font-family: 'DejaVu Sans'; fill: #1f2933">1</tspan>
        <tspan x="5.248901" y="-0.78125" style="font-size: 8.2px; font-family: 'DejaVu Sans'; fill: #1f2933">0</tspan>
        <tspan x="10.574365" y="-3.84375" style="font-size: 5.74px; font-family: 'DejaVu Sans'; fill: #1f2933">2</tspan>
       </text>
      </g>
     </g>
    </g>
    <g id="xtick_4">
     <g id="line2d_4">
      <path d="M 313.029967 535.846708 
L 313.029967 306.616728 
" clip-path="url(#p89d51a844a)" style="fill: none; stroke: #e8edf2; stroke-width: 0.55; stroke-linecap: round"/>
     </g>
     <g id="text_16">
      <!-- $\mathdefault{10^{3}}$ -->
      <g style="fill: #1f2933" transform="translate(305.813967 548.577426)">
       <text>
        <tspan x="0" y="-0.78125" style="font-size: 8.2px; font-family: 'DejaVu Sans'; fill: #1f2933">1</tspan>
        <tspan x="5.248901" y="-0.78125" style="font-size: 8.2px; font-family: 'DejaVu Sans'; fill: #1f2933">0</tspan>
        <tspan x="10.574365" y="-3.84375" style="font-size: 5.74px; font-family: 'DejaVu Sans'; fill: #1f2933">3</tspan>
       </text>
      </g>
     </g>
    </g>
    <g id="xtick_5">
     <g id="line2d_5">
      <path d="M 392.814435 535.846708 
L 392.814435 306.616728 
" clip-path="url(#p89d51a844a)" style="fill: none; stroke: #e8edf2; stroke-width: 0.55; stroke-linecap: round"/>
     </g>
     <g id="text_17">
      <!-- $\mathdefault{10^{4}}$ -->
      <g style="fill: #1f2933" transform="translate(385.598435 548.577426)">
       <text>
        <tspan x="0" y="-0.857813" style="font-size: 8.2px; font-family: 'DejaVu Sans'; fill: #1f2933">1</tspan>
        <tspan x="5.248901" y="-0.857813" style="font-size: 8.2px; font-family: 'DejaVu Sans'; fill: #1f2933">0</tspan>
        <tspan x="10.574365" y="-3.920313" style="font-size: 5.74px; font-family: 'DejaVu Sans'; fill: #1f2933">4</tspan>
       </text>
      </g>
     </g>
    </g>
    <g id="xtick_6">
     <g id="line2d_6">
      <path d="M 472.598902 535.846708 
L 472.598902 306.616728 
" clip-path="url(#p89d51a844a)" style="fill: none; stroke: #e8edf2; stroke-width: 0.55; stroke-linecap: round"/>
     </g>
     <g id="text_18">
      <!-- $\mathdefault{10^{5}}$ -->
      <g style="fill: #1f2933" transform="translate(465.382902 548.577426)">
       <text>
        <tspan x="0" y="-0.857813" style="font-size: 8.2px; font-family: 'DejaVu Sans'; fill: #1f2933">1</tspan>
        <tspan x="5.248901" y="-0.857813" style="font-size: 8.2px; font-family: 'DejaVu Sans'; fill: #1f2933">0</tspan>
        <tspan x="10.574365" y="-3.920313" style="font-size: 5.74px; font-family: 'DejaVu Sans'; fill: #1f2933">5</tspan>
       </text>
      </g>
     </g>
    </g>
    <g id="text_19">
     <text style="font-size: 8.8px; font-family: 'DejaVu Sans'; text-anchor: middle; fill: #1f2933" x="292.820945" y="560.969395" transform="rotate(-0 292.820945 560.969395)">Count, symlog scale</text>
    </g>
   </g>
   <g id="matplotlib.axis_2">
    <g id="ytick_1">
     <g id="text_20">
      <text style="font-size: 8.2px; font-family: 'DejaVu Sans'; text-anchor: end; fill: #1f2933" x="58.311625" y="513.403013" transform="rotate(-0 58.311625 513.403013)">NHANES</text>
     </g>
    </g>
    <g id="ytick_2">
     <g id="text_21">
      <text style="font-size: 8.2px; font-family: 'DejaVu Sans'; text-anchor: end; fill: #1f2933" x="58.311625" y="468.875045" transform="rotate(-0 58.311625 468.875045)">CGMacros</text>
     </g>
    </g>
    <g id="ytick_3">
     <g id="text_22">
      <text style="font-size: 8.2px; font-family: 'DejaVu Sans'; text-anchor: end; fill: #1f2933" x="58.311625" y="424.347077" transform="rotate(-0 58.311625 424.347077)">Stanford</text>
     </g>
    </g>
    <g id="ytick_4">
     <g id="text_23">
      <text style="font-size: 8.2px; font-family: 'DejaVu Sans'; text-anchor: end; fill: #1f2933" x="58.311625" y="379.819109" transform="rotate(-0 58.311625 379.819109)">T1D-UOM</text>
     </g>
    </g>
    <g id="ytick_5">
     <g id="text_24">
      <text style="font-size: 8.2px; font-family: 'DejaVu Sans'; text-anchor: end; fill: #1f2933" x="58.311625" y="335.291141" transform="rotate(-0 58.311625 335.291141)">Jaeb healthy</text>
     </g>
    </g>
   </g>
   <g id="patch_13">
    <path d="M 64.811625 509.397094 
L 370.599512 509.397094 
L 370.599512 495.148145 
L 64.811625 495.148145 
z
" clip-path="url(#p89d51a844a)" style="fill: #3e6fa5; opacity: 0.88; stroke: #ffffff; stroke-width: 0.8; stroke-linejoin: miter"/>
   </g>
   <g id="patch_14">
    <path d="M 64.811625 464.869126 
L 201.496069 464.869126 
L 201.496069 450.620176 
L 64.811625 450.620176 
z
" clip-path="url(#p89d51a844a)" style="fill: #3e6fa5; opacity: 0.88; stroke: #ffffff; stroke-width: 0.8; stroke-linejoin: miter"/>
   </g>
   <g id="patch_15">
    <path d="M 64.811625 420.341158 
L 199.718758 420.341158 
L 199.718758 406.092208 
L 64.811625 406.092208 
z
" clip-path="url(#p89d51a844a)" style="fill: #3e6fa5; opacity: 0.88; stroke: #ffffff; stroke-width: 0.8; stroke-linejoin: miter"/>
   </g>
   <g id="patch_16">
    <path d="M 64.811625 375.81319 
L 167.51038 375.81319 
L 167.51038 361.56424 
L 64.811625 361.56424 
z
" clip-path="url(#p89d51a844a)" style="fill: #3e6fa5; opacity: 0.88; stroke: #ffffff; stroke-width: 0.8; stroke-linejoin: miter"/>
   </g>
   <g id="patch_17">
    <path d="M 64.811625 331.285222 
L 251.427319 331.285222 
L 251.427319 317.036272 
L 64.811625 317.036272 
z
" clip-path="url(#p89d51a844a)" style="fill: #3e6fa5; opacity: 0.88; stroke: #ffffff; stroke-width: 0.8; stroke-linejoin: miter"/>
   </g>
   <g id="patch_18">
    <path d="M 64.811625 525.427163 
L 64.811625 525.427163 
L 64.811625 511.178213 
L 64.811625 511.178213 
z
" clip-path="url(#p89d51a844a)" style="fill: #e17c3a; opacity: 0.86; stroke: #ffffff; stroke-width: 0.8; stroke-linejoin: miter"/>
   </g>
   <g id="patch_19">
    <path d="M 64.811625 480.899195 
L 327.033084 480.899195 
L 327.033084 466.650245 
L 64.811625 466.650245 
z
" clip-path="url(#p89d51a844a)" style="fill: #e17c3a; opacity: 0.86; stroke: #ffffff; stroke-width: 0.8; stroke-linejoin: miter"/>
   </g>
   <g id="patch_20">
    <path d="M 64.811625 436.371227 
L 294.62986 436.371227 
L 294.62986 422.122277 
L 64.811625 422.122277 
z
" clip-path="url(#p89d51a844a)" style="fill: #e17c3a; opacity: 0.86; stroke: #ffffff; stroke-width: 0.8; stroke-linejoin: miter"/>
   </g>
   <g id="patch_21">
    <path d="M 64.811625 391.843259 
L 359.469583 391.843259 
L 359.469583 377.594309 
L 64.811625 377.594309 
z
" clip-path="url(#p89d51a844a)" style="fill: #e17c3a; opacity: 0.86; stroke: #ffffff; stroke-width: 0.8; stroke-linejoin: miter"/>
   </g>
   <g id="patch_22">
    <path d="M 64.811625 347.31529 
L 519.139688 347.31529 
L 519.139688 333.066341 
L 64.811625 333.066341 
z
" clip-path="url(#p89d51a844a)" style="fill: #e17c3a; opacity: 0.86; stroke: #ffffff; stroke-width: 0.8; stroke-linejoin: miter"/>
   </g>
   <g id="patch_23">
    <path d="M 64.811625 535.846708 
L 64.811625 306.616728 
" style="fill: none; stroke: #1f2933; stroke-width: 0.75; stroke-linejoin: miter; stroke-linecap: square"/>
   </g>
   <g id="patch_24">
    <path d="M 64.811625 535.846708 
L 520.830265 535.846708 
" style="fill: none; stroke: #1f2933; stroke-width: 0.75; stroke-linejoin: miter; stroke-linecap: square"/>
   </g>
   <g id="text_25">
    <text style="font-weight: 700; font-size: 10.5px; font-family: 'DejaVu Sans'; text-anchor: start; fill: #18212b" x="23.769947" y="296.256689" transform="rotate(-0 23.769947 296.256689)">B</text>
   </g>
   <g id="text_26">
    <text style="font-size: 9.4px; font-family: 'DejaVu Sans'; text-anchor: middle; fill: #262626" x="292.820945" y="300.616728" transform="rotate(-0 292.820945 300.616728)">Analytic sample layers</text>
   </g>
   <g id="legend_1">
    <g id="patch_25">
     <path d="M 445.89964 517.301083 
L 460.29964 517.301083 
L 460.29964 512.261083 
L 445.89964 512.261083 
z
" style="fill: #3e6fa5; opacity: 0.88; stroke: #ffffff; stroke-width: 0.8; stroke-linejoin: miter"/>
    </g>
    <g id="text_27">
     <text style="font-size: 7.2px; font-family: 'DejaVu Sans'; text-anchor: start; fill: #262626" x="466.05964" y="517.301083" transform="rotate(-0 466.05964 517.301083)">participants</text>
    </g>
    <g id="patch_26">
     <path d="M 445.89964 527.869333 
L 460.29964 527.869333 
L 460.29964 522.829333 
L 445.89964 522.829333 
z
" style="fill: #e17c3a; opacity: 0.86; stroke: #ffffff; stroke-width: 0.8; stroke-linejoin: miter"/>
    </g>
    <g id="text_28">
     <text style="font-size: 7.2px; font-family: 'DejaVu Sans'; text-anchor: start; fill: #262626" x="466.05964" y="527.869333" transform="rotate(-0 466.05964 527.869333)">meals/events</text>
    </g>
   </g>
  </g>
  <g id="axes_3">
   <g id="patch_27">
    <path d="M 579.680906 359.798083 
L 929.903222 359.798083 
Q 934.281001 359.798083 934.281001 357.047323 
L 934.281001 315.785927 
Q 934.281001 313.035167 929.903222 313.035167 
L 579.680906 313.035167 
Q 575.303127 313.035167 575.303127 315.785927 
L 575.303127 357.047323 
Q 575.303127 359.798083 579.680906 359.798083 
z
" clip-path="url(#p7f0de01eb5)" style="fill: #f8fafc; stroke: #d7dee7; stroke-width: 0.8; stroke-linejoin: miter"/>
   </g>
   <g id="patch_28">
    <path d="M 579.680906 410.228678 
L 929.903222 410.228678 
Q 934.281001 410.228678 934.281001 407.477919 
L 934.281001 366.216522 
Q 934.281001 363.465763 929.903222 363.465763 
L 579.680906 363.465763 
Q 575.303127 363.465763 575.303127 366.216522 
L 575.303127 407.477919 
Q 575.303127 410.228678 579.680906 410.228678 
z
" clip-path="url(#p7f0de01eb5)" style="fill: #f8fafc; stroke: #d7dee7; stroke-width: 0.8; stroke-linejoin: miter"/>
   </g>
   <g id="patch_29">
    <path d="M 579.680906 460.659274 
L 929.903222 460.659274 
Q 934.281001 460.659274 934.281001 457.908514 
L 934.281001 416.647118 
Q 934.281001 413.896358 929.903222 413.896358 
L 579.680906 413.896358 
Q 575.303127 413.896358 575.303127 416.647118 
L 575.303127 457.908514 
Q 575.303127 460.659274 579.680906 460.659274 
z
" clip-path="url(#p7f0de01eb5)" style="fill: #f8fafc; stroke: #d7dee7; stroke-width: 0.8; stroke-linejoin: miter"/>
   </g>
   <g id="patch_30">
    <path d="M 579.680906 511.08987 
L 929.903222 511.08987 
Q 934.281001 511.08987 934.281001 508.33911 
L 934.281001 467.077714 
Q 934.281001 464.326954 929.903222 464.326954 
L 579.680906 464.326954 
Q 575.303127 464.326954 575.303127 467.077714 
L 575.303127 508.33911 
Q 575.303127 511.08987 579.680906 511.08987 
z
" clip-path="url(#p7f0de01eb5)" style="fill: #f8fafc; stroke: #d7dee7; stroke-width: 0.8; stroke-linejoin: miter"/>
   </g>
   <g id="text_29">
    <text style="font-weight: 700; font-size: 7.7px; font-family: 'DejaVu Sans'; text-anchor: start; fill: #18212b" x="586.977204" y="329.372145" transform="rotate(-0 586.977204 329.372145)">Cross-dataset causal overclaim</text>
   </g>
   <g id="text_30">
    <text style="font-size: 6.25px; font-family: 'DejaVu Sans'; fill: #626d78" transform="translate(586.977204 341.060357)">Use: DEHP oxidative profile is associated with MSI in NHANES;</text>
    <text style="font-size: 6.25px; font-family: 'DejaVu Sans'; fill: #626d78" transform="translate(586.977204 348.05899)">MSI is expressed as PPGR vulnerability in CGMacros.</text>
   </g>
   <g id="text_31">
    <g id="patch_31">
     <path d="M 896.401382 331.89477 
L 911.662476 331.89477 
Q 912.922476 331.89477 912.922476 330.63477 
L 912.922476 323.860082 
Q 912.922476 322.600082 911.662476 322.600082 
L 896.401382 322.600082 
Q 895.141382 322.600082 895.141382 323.860082 
L 895.141382 330.63477 
Q 895.141382 331.89477 896.401382 331.89477 
z
" style="fill: #c75361"/>
    </g>
    <text style="font-size: 7px; font-family: 'DejaVu Sans'; text-anchor: end; fill: #ffffff" x="911.662476" y="329.178988" transform="rotate(-0 911.662476 329.178988)">high</text>
   </g>
   <g id="text_32">
    <text style="font-weight: 700; font-size: 7.7px; font-family: 'DejaVu Sans'; text-anchor: start; fill: #18212b" x="586.977204" y="379.80274" transform="rotate(-0 586.977204 379.80274)">Mediator overclaim</text>
   </g>
   <g id="text_33">
    <text style="font-size: 6.25px; font-family: 'DejaVu Sans'; fill: #626d78" transform="translate(586.977204 391.490953)">Use: MSI is a bridge phenotype linking population exposure</text>
    <text style="font-size: 6.25px; font-family: 'DejaVu Sans'; fill: #626d78" transform="translate(586.977204 398.489586)">signals with dynamic CGM phenotypes.</text>
   </g>
   <g id="text_34">
    <g id="patch_32">
     <path d="M 896.401382 382.325365 
L 911.662476 382.325365 
Q 912.922476 382.325365 912.922476 381.065365 
L 912.922476 374.290678 
Q 912.922476 373.030678 911.662476 373.030678 
L 896.401382 373.030678 
Q 895.141382 373.030678 895.141382 374.290678 
L 895.141382 381.065365 
Q 895.141382 382.325365 896.401382 382.325365 
z
" style="fill: #c75361"/>
    </g>
    <text style="font-size: 7px; font-family: 'DejaVu Sans'; text-anchor: end; fill: #ffffff" x="911.662476" y="379.609584" transform="rotate(-0 911.662476 379.609584)">high</text>
   </g>
   <g id="text_35">
    <text style="font-weight: 700; font-size: 7.7px; font-family: 'DejaVu Sans'; text-anchor: start; fill: #18212b" x="586.977204" y="430.233336" transform="rotate(-0 586.977204 430.233336)">Food matrix overclaim</text>
   </g>
   <g id="text_36">
    <text style="font-size: 6.25px; font-family: 'DejaVu Sans'; fill: #626d78" transform="translate(586.977204 441.921549)">Use: Digestibility-risk is a dry-lab food matrix proxy</text>
    <text style="font-size: 6.25px; font-family: 'DejaVu Sans'; fill: #626d78" transform="translate(586.977204 448.920181)">requiring expert/photo/database validation.</text>
   </g>
   <g id="text_37">
    <g id="patch_33">
     <path d="M 896.401382 432.755961 
L 911.662476 432.755961 
Q 912.922476 432.755961 912.922476 431.495961 
L 912.922476 424.721273 
Q 912.922476 423.461273 911.662476 423.461273 
L 896.401382 423.461273 
Q 895.141382 423.461273 895.141382 424.721273 
L 895.141382 431.495961 
Q 895.141382 432.755961 896.401382 432.755961 
z
" style="fill: #c75361"/>
    </g>
    <text style="font-size: 7px; font-family: 'DejaVu Sans'; text-anchor: end; fill: #ffffff" x="911.662476" y="430.040179" transform="rotate(-0 911.662476 430.040179)">high</text>
   </g>
   <g id="text_38">
    <text style="font-weight: 700; font-size: 7.7px; font-family: 'DejaVu Sans'; text-anchor: start; fill: #18212b" x="586.977204" y="480.663931" transform="rotate(-0 586.977204 480.663931)">Prediction overclaim</text>
   </g>
   <g id="text_39">
    <text style="font-size: 6.25px; font-family: 'DejaVu Sans'; fill: #626d78" transform="translate(586.977204 492.352144)">Use: The MSI-enhanced model improves high-response meal risk</text>
    <text style="font-size: 6.25px; font-family: 'DejaVu Sans'; fill: #626d78" transform="translate(586.977204 499.350777)">stratification and calibration.</text>
   </g>
   <g id="text_40">
    <g id="patch_34">
     <path d="M 882.89357 483.186556 
L 911.662476 483.186556 
Q 912.922476 483.186556 912.922476 481.926556 
L 912.922476 475.151869 
Q 912.922476 473.891869 911.662476 473.891869 
L 882.89357 473.891869 
Q 881.63357 473.891869 881.63357 475.151869 
L 881.63357 481.926556 
Q 881.63357 483.186556 882.89357 483.186556 
z
" style="fill: #e17c3a"/>
    </g>
    <text style="font-size: 7px; font-family: 'DejaVu Sans'; text-anchor: end; fill: #ffffff" x="911.662476" y="480.470775" transform="rotate(-0 911.662476 480.470775)">medium</text>
   </g>
   <g id="text_41">
    <text style="font-weight: 700; font-size: 10.5px; font-family: 'DejaVu Sans'; text-anchor: start; fill: #18212b" x="539.551266" y="296.256689" transform="rotate(-0 539.551266 296.256689)">C</text>
   </g>
   <g id="text_42">
    <text style="font-size: 9.4px; font-family: 'DejaVu Sans'; text-anchor: start; fill: #262626" x="572.384608" y="302.616728" transform="rotate(-0 572.384608 302.616728)">No-overclaim guardrails</text>
   </g>
  </g>
 </g>
 <defs>
  <clipPath id="pe7e7b5761a">
   <rect x="64.811625" y="7.2" width="872.387895" height="275.075976"/>
  </clipPath>
  <clipPath id="p89d51a844a">
   <rect x="64.811625" y="306.616728" width="456.01864" height="229.22998"/>
  </clipPath>
  <clipPath id="p7f0de01eb5">
   <rect x="572.384608" y="306.616728" width="364.814912" height="229.22998"/>
  </clipPath>
 </defs>
</svg>
